<svg xmlns="http://www.w3.org/2000/svg" xmlns:xlink="http://www.w3.org/1999/xlink" width="800" zoomAndPan="magnify" viewBox="0 0 600 599.999999" height="800" preserveAspectRatio="xMidYMid meet" version="1.0"><path fill="#ee4b84" d="M 240.730469 115.789062 C 255.308594 119.425781 268.796875 126.429688 281.941406 133.707031 C 290.289062 138.332031 298.664062 143.164062 305.496094 149.828125 C 312.332031 156.492188 317.566406 165.269531 318.148438 174.796875 C 319.007812 188.847656 310 201.339844 301.75 212.746094 C 294.636719 222.578125 287.773438 232.585938 281.164062 242.761719 C 274.011719 253.773438 267.019531 265.347656 264.878906 278.296875 C 262.074219 295.246094 267.964844 312.519531 276.257812 327.5625 C 302.125 374.472656 353.445312 406.285156 406.964844 408.585938 C 425.382812 409.996094 442.203125 413.496094 458.3125 419.054688 C 466.035156 421.71875 473.839844 425.019531 479.460938 430.945312 C 484.011719 435.746094 486.792969 441.914062 489.488281 447.957031 C 495.152344 460.648438 500.816406 473.339844 506.484375 486.03125 C 519.421875 501.214844 530.292969 518.222656 538.785156 536.34375 C 539.949219 538.828125 540.855469 542.277344 538.644531 543.898438 C 537.941406 544.414062 537.050781 544.601562 536.183594 544.652344 C 532.992188 544.847656 529.957031 543.394531 527.101562 541.953125 C 515.902344 536.300781 504.882812 530.28125 494.074219 523.910156 C 482.960938 533.84375 471.125 542.671875 458.496094 550.171875 C 464.695312 562.066406 471.175781 573.8125 477.660156 585.558594 C 479.867188 589.5625 481.871094 595.121094 478.484375 598.195312 C 476.535156 599.960938 473.605469 599.976562 470.988281 599.75 C 461.398438 598.921875 452.082031 596.230469 442.863281 593.46875 C 423.628906 587.714844 404.5 581.609375 385.488281 575.160156 C 346.160156 564.886719 306.304688 567.109375 266.984375 565.625 C 227.664062 564.140625 186.8125 558.28125 154.359375 536.027344 C 124.730469 515.703125 105.125 483.667969 91.03125 450.621094 C 64.597656 388.648438 54.71875 319.703125 62.683594 252.800781 C 66.898438 217.414062 77.371094 180.34375 105.253906 156.253906 C 113.511719 131.921875 132.714844 111.542969 156.511719 101.847656 C 175.304688 94.195312 196.578125 92.921875 214.15625 82.789062 C 239.9375 67.929688 252.472656 37.296875 275.910156 18.964844 C 301.941406 -1.390625 338.570312 -3.785156 370.449219 4.914062 C 385.523438 9.027344 400.277344 15.59375 411.546875 26.417969 C 416.625 31.296875 421.011719 37.148438 422.914062 43.933594 C 424.8125 50.714844 423.914062 58.527344 419.421875 63.949219 C 412.878906 71.84375 401.15625 72.667969 390.945312 71.730469 C 373.429688 70.125 356.355469 65.210938 338.855469 63.414062 C 321.359375 61.613281 302.550781 63.320312 288.265625 73.585938 C 271.804688 85.421875 262.574219 107.59375 240.730469 115.789062 Z M 240.730469 115.789062 " fill-opacity="1" fill-rule="nonzero"/><path fill="#ffffff" d="M 468.183594 294.75 C 468.183594 296.832031 468.132812 298.917969 468.027344 301 C 467.925781 303.085938 467.773438 305.164062 467.570312 307.238281 C 467.363281 309.3125 467.109375 311.382812 466.804688 313.445312 C 466.496094 315.507812 466.140625 317.5625 465.734375 319.609375 C 465.328125 321.65625 464.871094 323.6875 464.363281 325.710938 C 463.855469 327.734375 463.300781 329.746094 462.695312 331.738281 C 462.089844 333.734375 461.4375 335.714844 460.734375 337.679688 C 460.03125 339.640625 459.28125 341.585938 458.480469 343.515625 C 457.683594 345.441406 456.839844 347.347656 455.949219 349.230469 C 455.054688 351.117188 454.117188 352.980469 453.136719 354.820312 C 452.152344 356.660156 451.125 358.472656 450.050781 360.261719 C 448.980469 362.050781 447.863281 363.8125 446.707031 365.546875 C 445.546875 367.28125 444.347656 368.984375 443.105469 370.660156 C 441.863281 372.335938 440.578125 373.976562 439.257812 375.589844 C 437.933594 377.203125 436.570312 378.78125 435.171875 380.324219 C 433.769531 381.871094 432.332031 383.382812 430.859375 384.855469 C 429.382812 386.332031 427.875 387.769531 426.328125 389.167969 C 424.785156 390.570312 423.203125 391.929688 421.59375 393.253906 C 419.980469 394.578125 418.335938 395.859375 416.660156 397.101562 C 414.988281 398.34375 413.28125 399.546875 411.546875 400.703125 C 409.8125 401.863281 408.050781 402.976562 406.261719 404.050781 C 404.476562 405.121094 402.660156 406.148438 400.820312 407.132812 C 398.980469 408.117188 397.121094 409.054688 395.234375 409.945312 C 393.347656 410.835938 391.445312 411.683594 389.515625 412.480469 C 387.589844 413.277344 385.644531 414.027344 383.679688 414.730469 C 381.71875 415.433594 379.738281 416.085938 377.742188 416.691406 C 375.746094 417.296875 373.738281 417.855469 371.714844 418.359375 C 369.691406 418.867188 367.65625 419.324219 365.613281 419.730469 C 363.566406 420.136719 361.511719 420.496094 359.449219 420.800781 C 357.386719 421.105469 355.316406 421.363281 353.242188 421.566406 C 351.164062 421.769531 349.085938 421.925781 347.003906 422.027344 C 344.921875 422.128906 342.835938 422.179688 340.75 422.179688 C 338.664062 422.179688 336.582031 422.128906 334.5 422.027344 C 332.414062 421.925781 330.335938 421.769531 328.261719 421.566406 C 326.183594 421.363281 324.117188 421.105469 322.050781 420.800781 C 319.988281 420.496094 317.9375 420.136719 315.890625 419.730469 C 313.84375 419.324219 311.808594 418.867188 309.789062 418.359375 C 307.765625 417.855469 305.753906 417.296875 303.757812 416.691406 C 301.765625 416.085938 299.785156 415.433594 297.820312 414.730469 C 295.855469 414.027344 293.910156 413.277344 291.984375 412.480469 C 290.058594 411.683594 288.152344 410.835938 286.265625 409.945312 C 284.382812 409.054688 282.519531 408.117188 280.679688 407.132812 C 278.839844 406.148438 277.027344 405.121094 275.238281 404.050781 C 273.449219 402.976562 271.6875 401.863281 269.953125 400.703125 C 268.21875 399.546875 266.515625 398.34375 264.839844 397.101562 C 263.164062 395.859375 261.519531 394.578125 259.910156 393.253906 C 258.296875 391.929688 256.71875 390.570312 255.171875 389.167969 C 253.628906 387.769531 252.117188 386.332031 250.644531 384.855469 C 249.167969 383.382812 247.730469 381.871094 246.332031 380.324219 C 244.929688 378.78125 243.566406 377.203125 242.246094 375.589844 C 240.921875 373.976562 239.640625 372.335938 238.398438 370.660156 C 237.15625 368.984375 235.953125 367.28125 234.796875 365.546875 C 233.636719 363.8125 232.519531 362.050781 231.449219 360.261719 C 230.378906 358.472656 229.347656 356.660156 228.367188 354.820312 C 227.382812 352.980469 226.445312 351.117188 225.554688 349.234375 C 224.664062 347.347656 223.816406 345.441406 223.019531 343.515625 C 222.222656 341.585938 221.472656 339.640625 220.769531 337.679688 C 220.066406 335.714844 219.410156 333.734375 218.804688 331.738281 C 218.199219 329.746094 217.644531 327.734375 217.136719 325.710938 C 216.632812 323.6875 216.175781 321.65625 215.769531 319.609375 C 215.359375 317.5625 215.003906 315.507812 214.699219 313.445312 C 214.394531 311.382812 214.136719 309.3125 213.933594 307.238281 C 213.730469 305.164062 213.574219 303.085938 213.472656 301 C 213.371094 298.917969 213.320312 296.832031 213.320312 294.75 C 213.320312 292.664062 213.371094 290.578125 213.472656 288.496094 C 213.574219 286.414062 213.730469 284.332031 213.933594 282.257812 C 214.136719 280.183594 214.394531 278.113281 214.699219 276.050781 C 215.003906 273.988281 215.359375 271.933594 215.769531 269.886719 C 216.175781 267.84375 216.632812 265.808594 217.136719 263.785156 C 217.644531 261.761719 218.199219 259.753906 218.804688 257.757812 C 219.410156 255.761719 220.066406 253.78125 220.769531 251.816406 C 221.472656 249.855469 222.222656 247.910156 223.019531 245.984375 C 223.816406 244.054688 224.664062 242.148438 225.554688 240.265625 C 226.445312 238.378906 227.382812 236.515625 228.367188 234.675781 C 229.347656 232.839844 230.378906 231.023438 231.449219 229.234375 C 232.519531 227.445312 233.636719 225.683594 234.796875 223.953125 C 235.953125 222.21875 237.15625 220.511719 238.398438 218.835938 C 239.640625 217.164062 240.921875 215.519531 242.246094 213.90625 C 243.566406 212.292969 244.929688 210.714844 246.332031 209.171875 C 247.730469 207.625 249.167969 206.117188 250.644531 204.640625 C 252.117188 203.167969 253.628906 201.726562 255.171875 200.328125 C 256.71875 198.925781 258.296875 197.566406 259.910156 196.242188 C 261.519531 194.917969 263.164062 193.636719 264.839844 192.394531 C 266.515625 191.152344 268.21875 189.953125 269.953125 188.792969 C 271.6875 187.632812 273.449219 186.519531 275.238281 185.445312 C 277.027344 184.375 278.839844 183.347656 280.679688 182.363281 C 282.519531 181.378906 284.382812 180.445312 286.265625 179.550781 C 288.152344 178.660156 290.058594 177.816406 291.984375 177.015625 C 293.910156 176.21875 295.855469 175.46875 297.820312 174.765625 C 299.785156 174.0625 301.765625 173.410156 303.757812 172.804688 C 305.753906 172.199219 307.765625 171.644531 309.789062 171.136719 C 311.808594 170.628906 313.84375 170.171875 315.890625 169.765625 C 317.9375 169.359375 319.988281 169.003906 322.050781 168.695312 C 324.117188 168.390625 326.183594 168.136719 328.261719 167.929688 C 330.335938 167.726562 332.414062 167.574219 334.5 167.46875 C 336.582031 167.367188 338.664062 167.316406 340.75 167.316406 C 342.835938 167.316406 344.921875 167.367188 347.003906 167.46875 C 349.085938 167.574219 351.164062 167.726562 353.242188 167.929688 C 355.316406 168.136719 357.386719 168.390625 359.449219 168.695312 C 361.511719 169.003906 363.566406 169.359375 365.613281 169.765625 C 367.65625 170.171875 369.691406 170.628906 371.714844 171.136719 C 373.738281 171.644531 375.746094 172.199219 377.742188 172.804688 C 379.738281 173.410156 381.71875 174.0625 383.679688 174.765625 C 385.644531 175.46875 387.589844 176.21875 389.515625 177.015625 C 391.445312 177.816406 393.347656 178.660156 395.234375 179.550781 C 397.121094 180.445312 398.980469 181.378906 400.820312 182.363281 C 402.660156 183.347656 404.476562 184.375 406.265625 185.445312 C 408.050781 186.519531 409.8125 187.632812 411.546875 188.792969 C 413.28125 189.953125 414.988281 191.152344 416.660156 192.394531 C 418.335938 193.636719 419.980469 194.917969 421.59375 196.242188 C 423.203125 197.566406 424.785156 198.925781 426.328125 200.328125 C 427.875 201.726562 429.382812 203.167969 430.859375 204.640625 C 432.332031 206.117188 433.769531 207.625 435.171875 209.171875 C 436.570312 210.714844 437.933594 212.292969 439.257812 213.90625 C 440.578125 215.519531 441.863281 217.164062 443.105469 218.835938 C 444.347656 220.511719 445.546875 222.21875 446.707031 223.953125 C 447.863281 225.683594 448.980469 227.445312 450.050781 229.234375 C 451.125 231.023438 452.152344 232.839844 453.136719 234.675781 C 454.117188 236.515625 455.054688 238.378906 455.949219 240.265625 C 456.839844 242.148438 457.683594 244.054688 458.480469 245.984375 C 459.28125 247.910156 460.03125 249.855469 460.734375 251.816406 C 461.4375 253.78125 462.089844 255.761719 462.695312 257.757812 C 463.300781 259.753906 463.855469 261.761719 464.363281 263.785156 C 464.871094 265.808594 465.328125 267.84375 465.734375 269.886719 C 466.140625 271.933594 466.496094 273.988281 466.804688 276.050781 C 467.109375 278.113281 467.363281 280.183594 467.570312 282.257812 C 467.773438 284.332031 467.925781 286.414062 468.027344 288.496094 C 468.132812 290.578125 468.183594 292.664062 468.183594 294.75 Z M 468.183594 294.75 " fill-opacity="1" fill-rule="nonzero"/><path fill="#ee4b84" d="M 340.75 425.0625 C 268.894531 425.0625 210.433594 366.605469 210.433594 294.75 C 210.433594 222.894531 268.894531 164.433594 340.75 164.433594 C 412.605469 164.433594 471.066406 222.894531 471.066406 294.75 C 471.066406 366.605469 412.605469 425.0625 340.75 425.0625 Z M 340.75 170.199219 C 272.074219 170.199219 216.203125 226.074219 216.203125 294.75 C 216.203125 363.425781 272.074219 419.296875 340.75 419.296875 C 409.425781 419.296875 465.300781 363.425781 465.300781 294.75 C 465.300781 226.074219 409.425781 170.203125 340.75 170.203125 Z M 340.75 170.199219 " fill-opacity="1" fill-rule="nonzero"/><path fill="#ee4b84" d="M 300.480469 416.476562 C 299.492188 416.476562 298.527344 415.96875 297.992188 415.054688 C 297.183594 413.679688 297.644531 411.910156 299.019531 411.105469 C 366.484375 371.546875 420.707031 310.21875 451.703125 238.414062 C 452.335938 236.953125 454.039062 236.277344 455.496094 236.910156 C 456.957031 237.542969 457.632812 239.238281 457 240.703125 C 425.519531 313.625 370.453125 375.90625 301.9375 416.082031 C 301.480469 416.351562 300.976562 416.476562 300.480469 416.476562 Z M 300.480469 416.476562 " fill-opacity="1" fill-rule="nonzero"/><path fill="#ee4b84" d="M 390.464844 342.445312 C 389.082031 342.445312 387.859375 341.445312 387.621094 340.039062 C 379.695312 292.828125 360.929688 225.308594 316.5625 171.761719 C 315.546875 170.535156 315.714844 168.71875 316.941406 167.699219 C 318.167969 166.683594 319.988281 166.855469 321.003906 168.082031 C 366.1875 222.617188 385.265625 291.171875 393.3125 339.082031 C 393.574219 340.652344 392.515625 342.140625 390.945312 342.402344 C 390.785156 342.429688 390.621094 342.445312 390.464844 342.445312 Z M 390.464844 342.445312 " fill-opacity="1" fill-rule="nonzero"/><path fill="#ee4b84" d="M 407.136719 321.402344 C 405.777344 321.402344 404.570312 320.441406 404.304688 319.058594 C 394.375 267.023438 372.191406 213.964844 341.839844 169.660156 C 340.941406 168.347656 341.277344 166.554688 342.589844 165.652344 C 343.90625 164.75 345.699219 165.089844 346.597656 166.402344 C 377.390625 211.347656 399.894531 265.175781 409.972656 317.976562 C 410.269531 319.542969 409.242188 321.050781 407.679688 321.351562 C 407.496094 321.386719 407.316406 321.402344 407.136719 321.402344 Z M 407.136719 321.402344 " fill-opacity="1" fill-rule="nonzero"/><path fill="#ee4b84" d="M 421.726562 299.457031 C 420.398438 299.457031 419.203125 298.535156 418.914062 297.183594 C 409.457031 253.5 392.957031 211.945312 369.867188 173.671875 C 369.046875 172.308594 369.484375 170.535156 370.847656 169.714844 C 372.214844 168.890625 373.984375 169.328125 374.808594 170.691406 C 398.222656 209.507812 414.960938 251.65625 424.550781 295.960938 C 424.886719 297.519531 423.898438 299.054688 422.339844 299.390625 C 422.136719 299.4375 421.929688 299.457031 421.726562 299.457031 Z M 421.726562 299.457031 " fill-opacity="1" fill-rule="nonzero"/><path fill="#ee4b84" d="M 438.464844 274.757812 C 437.164062 274.757812 435.984375 273.871094 435.664062 272.554688 C 428.433594 242.714844 415.910156 212.4375 399.449219 184.992188 C 398.628906 183.625 399.070312 181.851562 400.4375 181.035156 C 401.804688 180.214844 403.574219 180.660156 404.394531 182.023438 C 421.152344 209.964844 433.902344 240.796875 441.269531 271.195312 C 441.644531 272.742188 440.691406 274.300781 439.144531 274.675781 C 438.917969 274.730469 438.6875 274.757812 438.464844 274.757812 Z M 438.464844 274.757812 " fill-opacity="1" fill-rule="nonzero"/><path fill="#ee4b84" d="M 330.410156 422.375 C 329.457031 422.375 328.527344 421.90625 327.976562 421.042969 C 327.117188 419.703125 327.507812 417.917969 328.851562 417.0625 C 385.980469 380.492188 432.429688 329.210938 463.183594 268.757812 C 463.90625 267.335938 465.644531 266.773438 467.0625 267.496094 C 468.480469 268.214844 469.046875 269.953125 468.324219 271.371094 C 437.105469 332.742188 389.953125 384.800781 331.960938 421.917969 C 331.476562 422.226562 330.941406 422.375 330.410156 422.375 Z M 330.410156 422.375 " fill-opacity="1" fill-rule="nonzero"/><path fill="#ee4b84" d="M 365.089844 421.464844 C 364.191406 421.464844 363.304688 421.046875 362.742188 420.261719 C 361.8125 418.96875 362.109375 417.167969 363.40625 416.238281 C 407.496094 384.59375 441.785156 345.242188 465.316406 299.265625 C 466.042969 297.847656 467.78125 297.289062 469.199219 298.011719 C 470.617188 298.738281 471.179688 300.476562 470.453125 301.894531 C 446.496094 348.691406 411.609375 388.742188 366.765625 420.925781 C 366.257812 421.289062 365.671875 421.464844 365.089844 421.464844 Z M 365.089844 421.464844 " fill-opacity="1" fill-rule="nonzero"/><path fill="#ee4b84" d="M 217.84375 332.304688 C 217.195312 332.304688 216.542969 332.085938 216.003906 331.636719 C 214.78125 330.621094 214.613281 328.800781 215.628906 327.578125 C 252.363281 283.378906 303.050781 250.421875 358.351562 234.78125 C 359.878906 234.347656 361.476562 235.238281 361.910156 236.769531 C 362.34375 238.300781 361.453125 239.898438 359.921875 240.332031 C 305.730469 255.660156 256.0625 287.953125 220.066406 331.265625 C 219.496094 331.949219 218.671875 332.304688 217.84375 332.304688 Z M 217.84375 332.304688 " fill-opacity="1" fill-rule="nonzero"/><path fill="#ee4b84" d="M 215.023438 299.433594 C 214.261719 299.433594 213.5 299.132812 212.933594 298.539062 C 211.835938 297.386719 211.878906 295.558594 213.035156 294.460938 C 251.398438 257.921875 298.582031 230.828125 349.476562 216.113281 C 351.007812 215.671875 352.605469 216.550781 353.046875 218.082031 C 353.492188 219.609375 352.609375 221.210938 351.078125 221.652344 C 301.070312 236.113281 254.710938 262.734375 217.011719 298.636719 C 216.453125 299.167969 215.738281 299.433594 215.023438 299.433594 Z M 215.023438 299.433594 " fill-opacity="1" fill-rule="nonzero"/><path fill="#ee4b84" d="M 217.046875 265.722656 C 216.144531 265.722656 215.257812 265.300781 214.695312 264.507812 C 213.773438 263.210938 214.078125 261.410156 215.375 260.488281 C 249.925781 235.957031 291.746094 209.3125 339.984375 197.6875 C 341.527344 197.3125 343.089844 198.265625 343.464844 199.816406 C 343.835938 201.363281 342.882812 202.921875 341.335938 203.292969 C 294.050781 214.691406 252.816406 240.976562 218.714844 265.191406 C 218.207031 265.550781 217.625 265.722656 217.046875 265.722656 Z M 217.046875 265.722656 " fill-opacity="1" fill-rule="nonzero"/><path fill="#ee4b84" d="M 234.554688 229.339844 C 233.640625 229.339844 232.746094 228.910156 232.183594 228.109375 C 231.273438 226.800781 231.59375 225.003906 232.898438 224.089844 C 261.875 203.878906 293.925781 189.207031 328.160156 180.480469 C 329.707031 180.085938 331.277344 181.019531 331.667969 182.5625 C 332.0625 184.105469 331.128906 185.675781 329.585938 186.070312 C 296.023438 194.625 264.605469 209.007812 236.199219 228.824219 C 235.699219 229.171875 235.121094 229.339844 234.554688 229.339844 Z M 234.554688 229.339844 " fill-opacity="1" fill-rule="nonzero"/><path fill="#ee4b84" d="M 369.605469 362.117188 C 368.042969 362.117188 366.761719 360.875 366.722656 359.304688 C 365.769531 320.472656 356.484375 281.386719 339.871094 246.273438 C 339.1875 244.832031 339.800781 243.113281 341.242188 242.433594 C 342.679688 241.75 344.402344 242.367188 345.082031 243.804688 C 362.039062 279.640625 371.515625 319.53125 372.488281 359.164062 C 372.527344 360.757812 371.269531 362.078125 369.675781 362.117188 C 369.652344 362.117188 369.628906 362.117188 369.605469 362.117188 Z M 369.605469 362.117188 " fill-opacity="1" fill-rule="nonzero"/><path fill="#ee4b84" d="M 344.195312 385.996094 C 344.136719 385.996094 344.070312 385.996094 344.007812 385.992188 C 342.417969 385.886719 341.214844 384.515625 341.316406 382.925781 C 344.132812 339.179688 336.976562 294.550781 320.625 253.871094 C 320.03125 252.394531 320.746094 250.714844 322.222656 250.121094 C 323.703125 249.523438 325.382812 250.242188 325.976562 251.71875 C 342.648438 293.195312 349.941406 338.691406 347.074219 383.296875 C 346.972656 384.824219 345.707031 385.996094 344.195312 385.996094 Z M 344.195312 385.996094 " fill-opacity="1" fill-rule="nonzero"/><path fill="#ee4b84" d="M 325.03125 398.007812 C 325 398.007812 324.964844 398.003906 324.929688 398.003906 C 323.339844 397.949219 322.09375 396.617188 322.148438 395.023438 C 323.664062 350.066406 315.621094 304.234375 298.882812 262.476562 C 298.289062 261 299.007812 259.320312 300.488281 258.726562 C 301.96875 258.128906 303.644531 258.851562 304.238281 260.332031 C 321.269531 302.824219 329.457031 349.46875 327.910156 395.21875 C 327.859375 396.777344 326.578125 398.007812 325.03125 398.007812 Z M 325.03125 398.007812 " fill-opacity="1" fill-rule="nonzero"/><path fill="#ee4b84" d="M 322.917969 377.050781 C 322.652344 377.050781 322.378906 377.015625 322.109375 376.933594 C 284.910156 366.046875 251.882812 347.925781 223.949219 323.082031 C 222.757812 322.023438 222.652344 320.203125 223.710938 319.011719 C 224.765625 317.820312 226.589844 317.714844 227.78125 318.773438 C 255.074219 343.046875 287.355469 360.753906 323.730469 371.398438 C 325.257812 371.847656 326.132812 373.449219 325.6875 374.976562 C 325.316406 376.234375 324.167969 377.050781 322.917969 377.050781 Z M 322.917969 377.050781 " fill-opacity="1" fill-rule="nonzero"/><path fill="#ee4b84" d="M 321.75 350.453125 C 321.539062 350.453125 321.328125 350.429688 321.113281 350.378906 C 290.019531 343.335938 262.886719 323.921875 240.449219 305.859375 C 239.207031 304.859375 239.011719 303.046875 240.011719 301.804688 C 241.011719 300.566406 242.828125 300.367188 244.066406 301.367188 C 265.992188 319.015625 292.441406 337.96875 322.386719 344.753906 C 323.941406 345.105469 324.914062 346.652344 324.5625 348.203125 C 324.257812 349.542969 323.070312 350.453125 321.75 350.453125 Z M 321.75 350.453125 " fill-opacity="1" fill-rule="nonzero"/><path fill="#ee4b84" d="M 324.3125 395.765625 C 324.179688 395.765625 324.046875 395.757812 323.914062 395.738281 C 287.457031 390.699219 253.050781 375.816406 224.414062 352.699219 C 223.175781 351.699219 222.980469 349.882812 223.980469 348.644531 C 224.980469 347.40625 226.796875 347.210938 228.035156 348.210938 C 255.859375 370.671875 289.285156 385.128906 324.703125 390.027344 C 326.28125 390.242188 327.382812 391.699219 327.164062 393.277344 C 326.964844 394.722656 325.730469 395.765625 324.3125 395.765625 Z M 324.3125 395.765625 " fill-opacity="1" fill-rule="nonzero"/><path fill="#ee4b84" d="M 314.859375 320.019531 C 314.640625 320.019531 314.414062 319.992188 314.191406 319.941406 C 293.4375 315.011719 274.242188 304.695312 258.6875 290.101562 C 257.523438 289.011719 257.464844 287.183594 258.554688 286.023438 C 259.644531 284.863281 261.46875 284.800781 262.632812 285.894531 C 277.457031 299.800781 295.746094 309.632812 315.523438 314.328125 C 317.074219 314.695312 318.03125 316.25 317.664062 317.800781 C 317.347656 319.125 316.164062 320.019531 314.859375 320.019531 Z M 314.859375 320.019531 " fill-opacity="1" fill-rule="nonzero"/><path fill="#ee4b84" d="M 208.152344 246.054688 C 221.15625 258.785156 234.160156 271.515625 247.164062 284.242188 C 254.414062 291.339844 261.894531 298.59375 271.21875 302.585938 C 275.707031 304.507812 280.652344 305.625 285.496094 304.984375 C 293.058594 303.984375 299.628906 298.679688 303.367188 292.03125 C 306.71875 286.074219 307.460938 277.410156 301.960938 273.351562 C 298.550781 270.839844 293.953125 270.972656 289.839844 269.957031 C 281.027344 267.78125 274.609375 260.328125 269.355469 252.921875 C 254.335938 231.753906 243.457031 207.371094 224.972656 189.152344 " fill-opacity="1" fill-rule="nonzero"/><path fill="#ee4b84" d="M 289.089844 178.066406 C 298.625 173.832031 308.980469 169.5 319.175781 171.726562 C 328.210938 173.703125 335.300781 180.453125 342.191406 186.617188 C 351.980469 195.371094 362.34375 203.476562 373.203125 210.863281 C 379.613281 215.226562 387.042969 219.519531 394.667969 218.09375 C 399.644531 217.164062 403.957031 213.800781 406.765625 209.589844 C 409.320312 205.757812 410.757812 200.941406 409.585938 196.488281 C 408.410156 192.035156 404.136719 188.289062 399.550781 188.6875 C 398.015625 188.824219 396.519531 189.386719 394.980469 189.308594 C 393.078125 189.214844 391.375 188.164062 389.796875 187.09375 C 371.882812 174.945312 358.84375 156.9375 347.207031 138.683594 C 343.878906 133.460938 340.441406 127.996094 335.152344 124.769531 C 329.265625 121.175781 321.457031 120.992188 315.40625 124.304688 C 312.972656 125.636719 310.808594 127.488281 308.210938 128.453125 C 303.035156 130.371094 297.308594 128.445312 292.132812 126.523438 C 275.503906 120.347656 257.910156 114.023438 240.429688 117.039062 " fill-opacity="1" fill-rule="nonzero"/><path fill="#ee4b84" d="M 230.839844 459.253906 C 232.675781 441.894531 235.328125 424.621094 238.785156 407.511719 C 240.972656 396.683594 243.535156 385.78125 248.703125 376.019531 C 255.152344 363.835938 265.296875 354.085938 275.300781 344.601562 C 293.09375 327.738281 311.582031 310.613281 334.382812 301.605469 C 340.398438 299.230469 348.136719 297.796875 352.605469 302.472656 C 357.125 307.203125 355.234375 314.984375 352.371094 320.863281 C 338.535156 349.234375 309.082031 368.636719 299.21875 398.621094 C 295.75 409.167969 294.960938 420.410156 295.019531 431.511719 C 295.105469 447.382812 296.863281 463.191406 298.621094 478.964844 " fill-opacity="1" fill-rule="nonzero"/><path fill="#ffffff" d="M 354.867188 479.109375 C 352.503906 469.660156 363.839844 458.683594 380.1875 454.601562 C 396.535156 450.515625 411.703125 454.867188 414.066406 464.316406 C 416.425781 473.769531 405.089844 484.742188 388.742188 488.828125 C 372.394531 492.914062 357.226562 488.5625 354.867188 479.109375 Z M 354.867188 479.109375 " fill-opacity="1" fill-rule="nonzero"/><path fill="#ffffff" d="M 477.585938 445.953125 C 477.585938 446.375 477.550781 446.796875 477.476562 447.214844 C 477.402344 447.636719 477.289062 448.050781 477.140625 448.464844 C 476.992188 448.878906 476.808594 449.289062 476.585938 449.691406 C 476.367188 450.09375 476.109375 450.492188 475.820312 450.878906 C 475.527344 451.269531 475.203125 451.652344 474.84375 452.023438 C 474.484375 452.394531 474.09375 452.753906 473.671875 453.105469 C 473.25 453.457031 472.796875 453.796875 472.3125 454.121094 C 471.832031 454.445312 471.320312 454.757812 470.78125 455.058594 C 470.242188 455.355469 469.679688 455.636719 469.09375 455.90625 C 468.503906 456.171875 467.894531 456.421875 467.261719 456.65625 C 466.628906 456.890625 465.976562 457.109375 465.304688 457.308594 C 464.632812 457.507812 463.945312 457.6875 463.242188 457.847656 C 462.539062 458.007812 461.824219 458.152344 461.097656 458.273438 C 460.367188 458.394531 459.632812 458.496094 458.882812 458.582031 C 458.136719 458.664062 457.386719 458.722656 456.628906 458.765625 C 455.871094 458.808594 455.113281 458.828125 454.351562 458.828125 C 453.589844 458.828125 452.832031 458.808594 452.074219 458.765625 C 451.316406 458.722656 450.566406 458.664062 449.820312 458.582031 C 449.070312 458.496094 448.335938 458.394531 447.605469 458.273438 C 446.878906 458.152344 446.164062 458.007812 445.460938 457.847656 C 444.757812 457.6875 444.070312 457.507812 443.398438 457.308594 C 442.726562 457.109375 442.074219 456.890625 441.441406 456.65625 C 440.808594 456.421875 440.199219 456.171875 439.609375 455.90625 C 439.023438 455.636719 438.460938 455.355469 437.921875 455.058594 C 437.382812 454.757812 436.875 454.445312 436.390625 454.121094 C 435.90625 453.796875 435.453125 453.457031 435.03125 453.105469 C 434.609375 452.753906 434.21875 452.394531 433.859375 452.023438 C 433.5 451.652344 433.175781 451.269531 432.882812 450.878906 C 432.59375 450.492188 432.335938 450.09375 432.117188 449.691406 C 431.894531 449.289062 431.710938 448.878906 431.5625 448.464844 C 431.414062 448.050781 431.300781 447.636719 431.226562 447.214844 C 431.152344 446.796875 431.117188 446.375 431.117188 445.953125 C 431.117188 445.53125 431.152344 445.113281 431.226562 444.691406 C 431.300781 444.273438 431.414062 443.855469 431.5625 443.441406 C 431.710938 443.027344 431.894531 442.621094 432.117188 442.214844 C 432.335938 441.8125 432.59375 441.417969 432.882812 441.027344 C 433.175781 440.636719 433.5 440.257812 433.859375 439.886719 C 434.21875 439.511719 434.609375 439.152344 435.03125 438.800781 C 435.453125 438.449219 435.90625 438.113281 436.390625 437.785156 C 436.875 437.460938 437.382812 437.148438 437.921875 436.851562 C 438.460938 436.550781 439.023438 436.269531 439.609375 436.003906 C 440.199219 435.734375 440.808594 435.484375 441.441406 435.25 C 442.074219 435.015625 442.726562 434.800781 443.398438 434.601562 C 444.070312 434.402344 444.757812 434.222656 445.460938 434.058594 C 446.164062 433.898438 446.878906 433.757812 447.605469 433.632812 C 448.335938 433.511719 449.070312 433.410156 449.820312 433.328125 C 450.566406 433.246094 451.316406 433.183594 452.074219 433.140625 C 452.832031 433.101562 453.589844 433.082031 454.351562 433.082031 C 455.113281 433.082031 455.871094 433.101562 456.628906 433.140625 C 457.386719 433.183594 458.136719 433.246094 458.882812 433.328125 C 459.632812 433.410156 460.367188 433.511719 461.097656 433.632812 C 461.824219 433.757812 462.539062 433.898438 463.242188 434.058594 C 463.945312 434.222656 464.632812 434.402344 465.304688 434.601562 C 465.976562 434.800781 466.628906 435.015625 467.261719 435.25 C 467.894531 435.484375 468.503906 435.734375 469.09375 436.003906 C 469.679688 436.269531 470.242188 436.550781 470.78125 436.851562 C 471.320312 437.148438 471.832031 437.460938 472.3125 437.785156 C 472.796875 438.113281 473.25 438.449219 473.671875 438.800781 C 474.09375 439.152344 474.484375 439.511719 474.84375 439.886719 C 475.203125 440.257812 475.527344 440.636719 475.820312 441.027344 C 476.109375 441.417969 476.367188 441.8125 476.585938 442.21875 C 476.808594 442.621094 476.992188 443.027344 477.140625 443.441406 C 477.289062 443.855469 477.402344 444.273438 477.476562 444.691406 C 477.550781 445.113281 477.585938 445.53125 477.585938 445.953125 Z M 477.585938 445.953125 " fill-opacity="1" fill-rule="nonzero"/><path fill="#ffffff" d="M 411.355469 443.046875 C 411.097656 443.863281 410.773438 444.980469 410.574219 446.386719 C 410.476562 447.054688 410.457031 447.859375 410.996094 448.269531 C 411.523438 448.675781 412.277344 448.460938 412.902344 448.230469 C 414.417969 447.671875 415.933594 447.113281 417.449219 446.554688 C 417.878906 446.394531 418.375 446.160156 418.457031 445.707031 C 418.546875 445.191406 418.039062 444.785156 417.589844 444.511719 C 416.269531 443.703125 414.929688 442.914062 413.578125 442.152344 C 413.246094 441.964844 412.886719 441.773438 412.503906 441.800781 C 412.121094 441.828125 411.640625 442.136719 411.355469 443.046875 Z M 411.355469 443.046875 " fill-opacity="1" fill-rule="nonzero"/><path fill="#ffffff" d="M 246.507812 383.339844 C 245.726562 381.953125 243.566406 381.933594 242.789062 383.339844 C 236.996094 395.277344 234.519531 412.484375 232.03125 427.300781 C 230.507812 437.488281 229.082031 447.691406 227.929688 457.929688 C 227.570312 461.371094 227.261719 464.820312 227.015625 468.273438 C 227.042969 469.5 226.675781 470.835938 227.121094 472.003906 C 227.640625 473.523438 229.839844 473.917969 230.925781 472.757812 C 231.859375 471.8125 231.585938 470.421875 231.742188 469.210938 C 233.363281 448.96875 235.960938 431.589844 239.632812 411.183594 C 241.148438 402.996094 243.992188 391.5 246.425781 385.703125 C 245.941406 386.855469 246.554688 385.394531 246.722656 384.996094 C 246.875 384.441406 246.796875 383.835938 246.507812 383.339844 Z M 246.507812 383.339844 " fill-opacity="1" fill-rule="nonzero"/><path fill="#ffffff" d="M 300.460938 479.339844 C 297.496094 466.078125 296.328125 454.28125 296.203125 439.917969 C 296.351562 432.53125 296.839844 425.148438 297.421875 417.78125 C 297.417969 415.222656 293.492188 415.191406 293.472656 417.78125 C 291.875 430.007812 291.140625 442.339844 292.304688 454.644531 C 292.777344 461.816406 293.640625 468.960938 294.988281 476.023438 C 295.554688 478.214844 295.523438 480.878906 296.582031 482.851562 C 297.488281 484.214844 299.753906 484.027344 300.523438 482.609375 C 301.144531 481.566406 300.667969 480.429688 300.460938 479.339844 Z M 300.460938 479.339844 " fill-opacity="1" fill-rule="nonzero"/><path fill="#ffffff" d="M 243.011719 208.34375 C 241.730469 206.324219 240.402344 204.335938 239.027344 202.382812 C 233.515625 194.359375 226.808594 185.285156 216.433594 184.007812 C 208.039062 183.222656 201.742188 189.921875 196.714844 195.742188 C 196.203125 196.429688 195.402344 197.050781 195.414062 197.980469 C 195.367188 199.539062 197.4375 200.402344 198.511719 199.261719 C 202.03125 195.414062 205.683594 192.757812 207.644531 191.273438 C 211.75 188.589844 215.46875 188.386719 217.476562 189.023438 C 227.484375 191.648438 232.929688 202.511719 240.257812 212.617188 C 241.488281 213.710938 243.644531 212.945312 244.023438 211.371094 C 244.363281 210.199219 243.636719 209.253906 243.011719 208.34375 Z M 243.011719 208.34375 " fill-opacity="1" fill-rule="nonzero"/><path fill="#ffffff" d="M 216.023438 248.003906 C 210.828125 242.0625 201.339844 237.078125 195.65625 245.195312 C 193.828125 247.628906 192.964844 250.65625 192.363281 253.605469 C 190.988281 260.59375 190.894531 265.058594 189.691406 271.1875 C 187.332031 281.792969 184.363281 290.109375 177.550781 296.691406 C 169.777344 303.722656 158.78125 307.792969 147.050781 306.597656 C 143.300781 306.359375 138.867188 305.515625 136 304.09375 C 133.855469 302.464844 131.457031 305.515625 133.734375 307.074219 C 138.289062 309.613281 144.484375 310.4375 147.964844 310.808594 C 160.738281 312.175781 172.679688 308.335938 182.382812 298.65625 C 188.875 291.621094 192.144531 282.289062 194.191406 273.085938 C 195.578125 266.105469 195.699219 261.449219 196.886719 255.386719 C 199.089844 243.03125 205.398438 242.695312 213.40625 251.425781 C 214.050781 252.070312 214.511719 253.023438 215.386719 253.367188 C 216.6875 254.039062 218.363281 252.871094 218.3125 251.441406 C 218.222656 249.996094 216.851562 249.078125 216.023438 248.003906 Z M 216.023438 248.003906 " fill-opacity="1" fill-rule="nonzero"/><path fill="#ffffff" d="M 241.3125 114.984375 C 230.789062 116.84375 221.085938 117.753906 209.699219 118.203125 C 200.03125 118.707031 190.320312 119.746094 181.160156 123.050781 C 179.152344 123.699219 177.15625 124.390625 175.175781 125.125 C 174.726562 125.246094 174.34375 125.546875 174.109375 125.945312 C 173.515625 126.917969 174.074219 128.277344 175.175781 128.566406 C 176.800781 128.734375 178.308594 127.515625 179.871094 127.125 C 187.652344 124.136719 194.363281 122.765625 201.882812 122.273438 C 214.605469 121.527344 230.425781 120.667969 241.3125 118.222656 C 243.402344 118.226562 243.445312 114.996094 241.3125 114.984375 Z M 241.3125 114.984375 " fill-opacity="1" fill-rule="nonzero"/><path fill="#ee4b84" d="M 385.5 469.855469 C 382.929688 467.375 380.4375 464.664062 377.609375 462.507812 C 375.714844 461.578125 373.914062 464.285156 375.449219 465.714844 C 377.5625 467.785156 379.828125 469.691406 381.90625 471.792969 C 382.539062 472.40625 383.144531 473.230469 384.117188 473.191406 C 385.800781 473.25 386.730469 471.007812 385.5 469.855469 Z M 385.5 469.855469 " fill-opacity="1" fill-rule="nonzero"/><path fill="#ee4b84" d="M 455.828125 443.472656 C 453.652344 441.710938 452.605469 440.910156 451.175781 439.757812 C 450.257812 438.820312 448.980469 437.75 447.640625 438.558594 C 446.390625 439.246094 446.273438 441.148438 447.414062 442 C 447.683594 442.246094 448.816406 443.023438 448.613281 442.855469 C 449.851562 443.835938 451.148438 444.738281 452.421875 445.671875 C 452.996094 446.046875 453.492188 446.675781 454.21875 446.710938 C 455.960938 447.054688 457.125 444.671875 455.828125 443.472656 Z M 455.828125 443.472656 " fill-opacity="1" fill-rule="nonzero"/></svg>