<svg xmlns="http://www.w3.org/2000/svg" xmlns:xlink="http://www.w3.org/1999/xlink" width="800" zoomAndPan="magnify" viewBox="0 0 600 599.999999" height="800" preserveAspectRatio="xMidYMid meet" version="1.0"><defs><clipPath id="7d67b87859"><path d="M 54.625 433 L 213 433 L 213 569 L 54.625 569 Z M 54.625 433 " clip-rule="nonzero"/></clipPath><clipPath id="6358380b07"><path d="M 407 436 L 545.125 436 L 545.125 564 L 407 564 Z M 407 436 " clip-rule="nonzero"/></clipPath></defs><g clip-path="url(#7d67b87859)"><path fill="#ee4b84" d="M 212.496094 529.742188 C 207.292969 537.9375 196.117188 539.054688 186.726562 541.503906 C 177.019531 544.035156 167.917969 548.863281 160.378906 555.484375 C 156.355469 559.015625 152.734375 563.074219 148.164062 565.863281 C 143.59375 568.648438 137.667969 569.984375 132.890625 567.570312 C 129.363281 565.789062 127.042969 562.292969 125.203125 558.796875 C 116.960938 543.132812 115.179688 524.855469 108.191406 508.59375 C 100.128906 489.832031 84.976562 474.214844 66.460938 465.597656 C 62.53125 463.765625 58.175781 462.003906 55.976562 458.265625 C 52.351562 452.109375 56.636719 444.089844 62.3125 439.75 C 68.226562 435.222656 75.730469 432.820312 83.175781 433.0625 C 97.929688 433.546875 110.472656 443.8125 120.433594 454.707031 C 130.398438 465.601562 139.429688 477.949219 153.917969 487.597656 C 158.105469 482.976562 165.632812 484.972656 171.730469 483.667969 " fill-opacity="1" fill-rule="nonzero"/></g><g clip-path="url(#6358380b07)"><path fill="#ee4b84" d="M 407.550781 536.585938 C 419.832031 542.410156 431.820312 548.851562 443.457031 555.875 C 451.621094 560.804688 461.15625 566.222656 470.128906 562.992188 C 476.582031 560.671875 480.703125 554.460938 484.09375 548.5 C 489.644531 538.738281 494.5 528.578125 498.601562 518.128906 C 506.101562 499.019531 512.660156 476.996094 530.726562 467.257812 C 536.136719 464.339844 542.929688 462.097656 544.90625 456.277344 C 546.671875 451.074219 543.351562 445.242188 538.695312 442.328125 C 531.398438 437.761719 519.371094 433.777344 509.347656 438.613281 C 496.691406 444.726562 485.195312 459.449219 470.359375 479.125 C 466.953125 483.640625 463.386719 488.476562 458.128906 490.570312 C 450.058594 493.78125 441.085938 489.488281 433.699219 484.917969 " fill-opacity="1" fill-rule="nonzero"/></g><path fill="#ee4b84" d="M 163.066406 466.632812 C 138.199219 429.964844 133.175781 382.574219 140.710938 338.914062 C 147.847656 297.554688 165.269531 258.78125 184.191406 221.25 C 186.75 216.171875 187.511719 210.359375 186.324219 204.796875 C 183.992188 193.871094 178.40625 183.902344 176.53125 173.414062 C 173.902344 158.71875 178.683594 143.738281 184.53125 130.003906 C 190.382812 116.269531 197.449219 102.773438 199.738281 88.023438 C 205.214844 59.546875 213.117188 32.855469 223.738281 7.21875 C 224.722656 4.84375 226.5625 2.84375 228.96875 1.9375 C 234.832031 -0.269531 238.707031 5.195312 241.222656 9.910156 C 251.355469 28.886719 257.183594 49 266.917969 69.242188 C 282.398438 65.761719 305.097656 65.480469 320.867188 64.554688 C 329.386719 46.257812 334.871094 33.054688 344.277344 15.199219 C 346.832031 10.355469 349.910156 5.769531 353.761719 1.871094 C 355.1875 0.429688 356.976562 -0.695312 359.273438 0.605469 C 360.269531 1.171875 361.03125 2.078125 361.574219 3.085938 C 377.675781 32.957031 388.484375 57.992188 393.257812 91.746094 C 397.445312 105.722656 406.5 117.640625 413.113281 130.644531 C 421.050781 146.246094 425.515625 164.082031 422.859375 181.386719 C 421.644531 189.292969 419.628906 195.621094 417.933594 202.890625 C 416.296875 209.890625 417.472656 217.246094 421.121094 223.4375 C 428.546875 236.035156 436.8125 248.84375 444.582031 260.769531 C 465.839844 293.390625 476.222656 332.96875 473.984375 374.785156 C 470.59375 406.394531 461.734375 437.40625 447.910156 466.035156 Z M 163.066406 466.632812 " fill-opacity="1" fill-rule="nonzero"/><path fill="#f9e6ea" d="M 471.910156 413.097656 C 471.910156 415.878906 471.84375 418.660156 471.707031 421.4375 C 471.570312 424.214844 471.367188 426.988281 471.09375 429.753906 C 470.820312 432.523438 470.480469 435.285156 470.070312 438.035156 C 469.664062 440.785156 469.1875 443.527344 468.644531 446.253906 C 468.101562 448.980469 467.492188 451.695312 466.816406 454.394531 C 466.140625 457.089844 465.402344 459.769531 464.59375 462.433594 C 463.785156 465.09375 462.914062 467.734375 461.976562 470.351562 C 461.039062 472.972656 460.039062 475.566406 458.972656 478.136719 C 457.910156 480.707031 456.78125 483.246094 455.59375 485.761719 C 454.40625 488.277344 453.15625 490.761719 451.84375 493.214844 C 450.53125 495.667969 449.160156 498.085938 447.730469 500.472656 C 446.300781 502.855469 444.8125 505.207031 443.269531 507.519531 C 441.722656 509.832031 440.121094 512.105469 438.464844 514.339844 C 436.808594 516.574219 435.097656 518.765625 433.332031 520.914062 C 431.570312 523.066406 429.753906 525.171875 427.882812 527.230469 C 426.015625 529.292969 424.097656 531.304688 422.132812 533.273438 C 420.164062 535.238281 418.152344 537.15625 416.089844 539.023438 C 414.03125 540.894531 411.925781 542.710938 409.773438 544.472656 C 407.625 546.238281 405.433594 547.949219 403.199219 549.605469 C 400.964844 551.261719 398.691406 552.863281 396.378906 554.410156 C 394.066406 555.953125 391.714844 557.441406 389.332031 558.871094 C 386.945312 560.300781 384.527344 561.671875 382.074219 562.984375 C 379.621094 564.296875 377.136719 565.546875 374.621094 566.734375 C 372.105469 567.921875 369.566406 569.050781 366.996094 570.113281 C 364.425781 571.179688 361.832031 572.179688 359.210938 573.117188 C 356.59375 574.054688 353.953125 574.925781 351.292969 575.734375 C 348.628906 576.542969 345.949219 577.28125 343.253906 577.957031 C 340.554688 578.632812 337.839844 579.242188 335.113281 579.785156 C 332.386719 580.328125 329.644531 580.804688 326.894531 581.210938 C 324.144531 581.621094 321.382812 581.960938 318.613281 582.234375 C 315.847656 582.507812 313.074219 582.710938 310.296875 582.847656 C 307.519531 582.984375 304.738281 583.050781 301.957031 583.050781 C 299.175781 583.050781 296.394531 582.984375 293.617188 582.847656 C 290.839844 582.710938 288.066406 582.507812 285.296875 582.234375 C 282.53125 581.960938 279.769531 581.621094 277.019531 581.210938 C 274.269531 580.804688 271.527344 580.328125 268.800781 579.785156 C 266.070312 579.242188 263.359375 578.632812 260.660156 577.957031 C 257.960938 577.28125 255.28125 576.542969 252.621094 575.734375 C 249.960938 574.925781 247.320312 574.054688 244.699219 573.117188 C 242.082031 572.179688 239.488281 571.179688 236.917969 570.113281 C 234.347656 569.050781 231.804688 567.921875 229.292969 566.734375 C 226.777344 565.546875 224.292969 564.296875 221.839844 562.984375 C 219.386719 561.671875 216.96875 560.300781 214.582031 558.871094 C 212.195312 557.441406 209.847656 555.953125 207.535156 554.410156 C 205.222656 552.863281 202.949219 551.261719 200.714844 549.605469 C 198.480469 547.949219 196.289062 546.238281 194.136719 544.472656 C 191.988281 542.710938 189.882812 540.894531 187.820312 539.023438 C 185.761719 537.15625 183.746094 535.238281 181.78125 533.273438 C 179.8125 531.304688 177.894531 529.292969 176.027344 527.230469 C 174.160156 525.171875 172.34375 523.066406 170.578125 520.914062 C 168.816406 518.765625 167.105469 516.574219 165.449219 514.339844 C 163.789062 512.105469 162.191406 509.832031 160.644531 507.519531 C 159.097656 505.207031 157.613281 502.855469 156.179688 500.472656 C 154.75 498.085938 153.382812 495.667969 152.070312 493.214844 C 150.757812 490.761719 149.507812 488.277344 148.320312 485.761719 C 147.128906 483.246094 146.003906 480.707031 144.9375 478.136719 C 143.875 475.566406 142.875 472.972656 141.9375 470.351562 C 141 467.734375 140.128906 465.09375 139.320312 462.433594 C 138.511719 459.769531 137.769531 457.089844 137.09375 454.394531 C 136.417969 451.695312 135.808594 448.980469 135.265625 446.253906 C 134.726562 443.527344 134.25 440.785156 133.839844 438.035156 C 133.433594 435.285156 133.09375 432.523438 132.820312 429.753906 C 132.546875 426.988281 132.34375 424.214844 132.207031 421.4375 C 132.070312 418.660156 132 415.878906 132 413.097656 C 132 410.316406 132.070312 407.535156 132.207031 404.757812 C 132.34375 401.980469 132.546875 399.207031 132.820312 396.4375 C 133.09375 393.671875 133.433594 390.910156 133.839844 388.160156 C 134.25 385.410156 134.726562 382.667969 135.265625 379.941406 C 135.808594 377.210938 136.417969 374.5 137.09375 371.800781 C 137.769531 369.101562 138.511719 366.421875 139.320312 363.761719 C 140.128906 361.101562 141 358.460938 141.9375 355.839844 C 142.875 353.222656 143.875 350.628906 144.9375 348.058594 C 146.003906 345.488281 147.128906 342.945312 148.320312 340.433594 C 149.507812 337.917969 150.757812 335.433594 152.070312 332.980469 C 153.382812 330.527344 154.75 328.109375 156.179688 325.722656 C 157.613281 323.335938 159.097656 320.988281 160.644531 318.675781 C 162.191406 316.363281 163.789062 314.089844 165.449219 311.855469 C 167.105469 309.621094 168.816406 307.429688 170.578125 305.277344 C 172.34375 303.128906 174.160156 301.023438 176.027344 298.960938 C 177.894531 296.902344 179.8125 294.886719 181.78125 292.921875 C 183.746094 290.953125 185.761719 289.035156 187.820312 287.167969 C 189.882812 285.300781 191.988281 283.484375 194.136719 281.71875 C 196.289062 279.957031 198.480469 278.246094 200.714844 276.589844 C 202.949219 274.929688 205.222656 273.332031 207.535156 271.785156 C 209.847656 270.238281 212.195312 268.753906 214.582031 267.320312 C 216.96875 265.890625 219.386719 264.523438 221.839844 263.210938 C 224.292969 261.898438 226.777344 260.648438 229.292969 259.460938 C 231.804688 258.269531 234.347656 257.144531 236.917969 256.078125 C 239.488281 255.015625 242.082031 254.015625 244.699219 253.078125 C 247.320312 252.140625 249.960938 251.269531 252.621094 250.460938 C 255.28125 249.652344 257.960938 248.910156 260.660156 248.234375 C 263.359375 247.558594 266.070312 246.949219 268.800781 246.40625 C 271.527344 245.867188 274.269531 245.390625 277.019531 244.980469 C 279.769531 244.574219 282.53125 244.234375 285.296875 243.960938 C 288.066406 243.6875 290.839844 243.484375 293.617188 243.347656 C 296.394531 243.210938 299.175781 243.140625 301.957031 243.140625 C 304.738281 243.140625 307.519531 243.210938 310.296875 243.347656 C 313.074219 243.484375 315.847656 243.6875 318.613281 243.960938 C 321.382812 244.234375 324.144531 244.574219 326.894531 244.980469 C 329.644531 245.390625 332.386719 245.867188 335.113281 246.40625 C 337.839844 246.949219 340.554688 247.558594 343.253906 248.234375 C 345.949219 248.910156 348.628906 249.652344 351.292969 250.460938 C 353.953125 251.269531 356.59375 252.140625 359.210938 253.078125 C 361.832031 254.015625 364.425781 255.015625 366.996094 256.078125 C 369.566406 257.144531 372.105469 258.269531 374.621094 259.460938 C 377.136719 260.648438 379.621094 261.898438 382.074219 263.210938 C 384.527344 264.523438 386.945312 265.890625 389.332031 267.320312 C 391.714844 268.753906 394.066406 270.238281 396.378906 271.785156 C 398.691406 273.332031 400.964844 274.929688 403.199219 276.589844 C 405.433594 278.246094 407.625 279.957031 409.773438 281.71875 C 411.925781 283.484375 414.03125 285.300781 416.089844 287.167969 C 418.152344 289.035156 420.164062 290.953125 422.132812 292.921875 C 424.097656 294.886719 426.015625 296.902344 427.882812 298.960938 C 429.753906 301.023438 431.570312 303.128906 433.332031 305.277344 C 435.097656 307.429688 436.808594 309.621094 438.464844 311.855469 C 440.121094 314.089844 441.722656 316.363281 443.269531 318.675781 C 444.8125 320.988281 446.300781 323.335938 447.730469 325.722656 C 449.160156 328.109375 450.53125 330.527344 451.84375 332.980469 C 453.15625 335.433594 454.40625 337.917969 455.59375 340.433594 C 456.78125 342.945312 457.910156 345.488281 458.972656 348.058594 C 460.039062 350.628906 461.039062 353.222656 461.976562 355.839844 C 462.914062 358.460938 463.785156 361.101562 464.59375 363.761719 C 465.402344 366.421875 466.140625 369.101562 466.816406 371.800781 C 467.492188 374.5 468.101562 377.210938 468.644531 379.941406 C 469.1875 382.667969 469.664062 385.410156 470.070312 388.160156 C 470.480469 390.910156 470.820312 393.671875 471.09375 396.4375 C 471.367188 399.207031 471.570312 401.980469 471.707031 404.757812 C 471.84375 407.535156 471.910156 410.316406 471.910156 413.097656 Z M 471.910156 413.097656 " fill-opacity="1" fill-rule="nonzero"/><path fill="#ee4b84" d="M 301.957031 586.253906 C 206.476562 586.253906 128.800781 508.578125 128.800781 413.097656 C 128.800781 317.617188 206.476562 239.941406 301.957031 239.941406 C 397.433594 239.941406 475.113281 317.617188 475.113281 413.097656 C 475.113281 508.578125 397.433594 586.253906 301.957031 586.253906 Z M 301.957031 246.34375 C 210.007812 246.34375 135.203125 321.148438 135.203125 413.097656 C 135.203125 505.046875 210.007812 579.851562 301.957031 579.851562 C 393.90625 579.851562 468.710938 505.046875 468.710938 413.097656 C 468.710938 321.148438 393.902344 246.34375 301.957031 246.34375 Z M 301.957031 246.34375 " fill-opacity="1" fill-rule="nonzero"/><path fill="#ee4b84" d="M 189.53125 210.472656 C 176.179688 245.796875 147.03125 272.296875 124.332031 302.472656 C 117.296875 311.824219 110.722656 321.859375 107.875 333.210938 C 103.832031 349.308594 107.820312 366.703125 116.113281 381.078125 C 124.410156 395.457031 136.710938 407.132812 149.871094 417.25 C 159.929688 424.984375 170.824219 432.042969 183.078125 435.34375 C 189.800781 437.15625 197.640625 437.578125 203.082031 433.230469 C 209.65625 427.976562 209.933594 417.660156 206.285156 410.074219 C 202.636719 402.488281 196.039062 396.832031 190.085938 390.878906 C 175.878906 376.675781 164.335938 359.136719 160.394531 339.4375 C 156.449219 319.738281 160.984375 297.777344 174.988281 283.375 " fill-opacity="1" fill-rule="nonzero"/><path fill="#ee4b84" d="M 419.261719 227.09375 C 432.652344 242.273438 446.042969 257.453125 459.429688 272.632812 C 473.914062 289.050781 489.269531 307.75 488.625 329.632812 C 488.054688 348.890625 475.132812 365.316406 462.441406 379.8125 C 450.703125 393.21875 438.347656 406.550781 422.847656 415.335938 C 414.699219 419.953125 403.53125 422.863281 396.675781 416.484375 C 392.371094 412.476562 391.347656 405.851562 392.683594 400.125 C 394.023438 394.398438 397.347656 389.359375 400.730469 384.550781 C 410.59375 370.519531 421.539062 357.109375 429.238281 341.78125 C 436.9375 326.453125 441.207031 308.578125 436.683594 292.03125 " fill-opacity="1" fill-rule="nonzero"/><path fill="#ee4b84" d="M 301.957031 583.050781 C 319.023438 600.015625 350.703125 602.847656 374.175781 597.5625 C 397.652344 592.28125 417.652344 572.046875 420.457031 548.148438 C 423.734375 520.199219 405.082031 494.644531 385.480469 474.453125 C 365.878906 454.261719 343.363281 434.597656 335.535156 407.566406 C 328.257812 382.425781 334.785156 353.8125 322.683594 330.605469 C 320.433594 326.289062 317.414062 322.140625 313.089844 319.90625 C 306.238281 316.367188 297.460938 318.582031 291.605469 323.605469 C 285.75 328.628906 282.355469 335.933594 279.984375 343.273438 C 272.441406 366.613281 273.792969 392.425781 282.117188 415.5 C 290.4375 438.574219 305.484375 458.9375 323.972656 475.058594 C 338.617188 487.828125 355.722656 498.390625 366.605469 514.492188 C 377.484375 530.589844 379.679688 555.09375 364.847656 567.648438 C 357.042969 574.257812 311.835938 586.613281 301.957031 583.050781 Z M 301.957031 583.050781 " fill-opacity="1" fill-rule="nonzero"/><path fill="#ffffff" d="M 266.121094 125.964844 C 266.984375 126.828125 267.804688 127.734375 268.582031 128.675781 C 269.355469 129.621094 270.082031 130.601562 270.761719 131.617188 C 271.4375 132.632812 272.066406 133.679688 272.640625 134.757812 C 273.21875 135.832031 273.738281 136.9375 274.207031 138.066406 C 274.675781 139.195312 275.085938 140.34375 275.441406 141.511719 C 275.796875 142.679688 276.089844 143.863281 276.328125 145.0625 C 276.566406 146.261719 276.746094 147.464844 276.867188 148.683594 C 276.988281 149.898438 277.046875 151.117188 277.046875 152.339844 C 277.046875 153.558594 276.988281 154.777344 276.867188 155.992188 C 276.746094 157.210938 276.566406 158.417969 276.328125 159.613281 C 276.089844 160.8125 275.796875 161.996094 275.441406 163.164062 C 275.085938 164.332031 274.675781 165.480469 274.207031 166.609375 C 273.738281 167.738281 273.21875 168.84375 272.640625 169.917969 C 272.066406 170.996094 271.4375 172.042969 270.761719 173.058594 C 270.082031 174.074219 269.355469 175.054688 268.582031 176 C 267.804688 176.941406 266.984375 177.847656 266.121094 178.710938 C 265.257812 179.574219 264.355469 180.394531 263.410156 181.167969 C 262.464844 181.945312 261.484375 182.671875 260.46875 183.347656 C 259.453125 184.027344 258.410156 184.65625 257.332031 185.230469 C 256.253906 185.808594 255.152344 186.328125 254.023438 186.796875 C 252.894531 187.261719 251.746094 187.675781 250.574219 188.027344 C 249.40625 188.382812 248.222656 188.679688 247.027344 188.917969 C 245.828125 189.15625 244.621094 189.335938 243.40625 189.457031 C 242.191406 189.574219 240.972656 189.636719 239.75 189.636719 C 238.527344 189.636719 237.308594 189.574219 236.09375 189.457031 C 234.878906 189.335938 233.671875 189.15625 232.472656 188.917969 C 231.273438 188.679688 230.089844 188.382812 228.921875 188.027344 C 227.753906 187.675781 226.605469 187.261719 225.476562 186.796875 C 224.347656 186.328125 223.246094 185.808594 222.167969 185.230469 C 221.089844 184.65625 220.042969 184.027344 219.027344 183.347656 C 218.011719 182.671875 217.03125 181.945312 216.089844 181.167969 C 215.144531 180.394531 214.238281 179.574219 213.375 178.710938 C 212.511719 177.847656 211.695312 176.941406 210.917969 176 C 210.144531 175.054688 209.417969 174.074219 208.738281 173.058594 C 208.058594 172.042969 207.433594 170.996094 206.855469 169.917969 C 206.28125 168.84375 205.757812 167.738281 205.292969 166.609375 C 204.824219 165.480469 204.414062 164.332031 204.058594 163.164062 C 203.703125 161.996094 203.40625 160.8125 203.167969 159.613281 C 202.929688 158.417969 202.75 157.210938 202.632812 155.992188 C 202.511719 154.777344 202.453125 153.558594 202.453125 152.339844 C 202.453125 151.117188 202.511719 149.898438 202.632812 148.683594 C 202.75 147.464844 202.929688 146.261719 203.167969 145.0625 C 203.40625 143.863281 203.703125 142.679688 204.058594 141.511719 C 204.414062 140.34375 204.824219 139.195312 205.292969 138.066406 C 205.757812 136.9375 206.28125 135.832031 206.855469 134.757812 C 207.433594 133.679688 208.058594 132.632812 208.738281 131.617188 C 209.417969 130.601562 210.144531 129.621094 210.917969 128.675781 C 211.691406 127.734375 212.511719 126.828125 213.375 125.964844 C 214.238281 125.101562 215.144531 124.28125 216.089844 123.507812 C 217.03125 122.730469 218.011719 122.003906 219.027344 121.328125 C 220.042969 120.648438 221.089844 120.019531 222.167969 119.445312 C 223.246094 118.871094 224.347656 118.347656 225.476562 117.878906 C 226.605469 117.414062 227.753906 117 228.921875 116.648438 C 230.089844 116.292969 231.273438 115.996094 232.472656 115.757812 C 233.671875 115.519531 234.878906 115.339844 236.09375 115.21875 C 237.308594 115.101562 238.527344 115.039062 239.75 115.039062 C 240.972656 115.039062 242.191406 115.101562 243.40625 115.21875 C 244.621094 115.339844 245.828125 115.519531 247.027344 115.757812 C 248.222656 115.996094 249.40625 116.292969 250.574219 116.648438 C 251.746094 117 252.894531 117.414062 254.023438 117.878906 C 255.152344 118.347656 256.253906 118.871094 257.332031 119.445312 C 258.410156 120.019531 259.453125 120.648438 260.46875 121.328125 C 261.484375 122.003906 262.464844 122.730469 263.410156 123.507812 C 264.355469 124.28125 265.257812 125.101562 266.121094 125.964844 Z M 266.121094 125.964844 " fill-opacity="1" fill-rule="nonzero"/><path fill="#ffffff" d="M 374.304688 125.964844 C 375.167969 126.828125 375.988281 127.734375 376.761719 128.675781 C 377.539062 129.621094 378.265625 130.601562 378.941406 131.617188 C 379.621094 132.632812 380.25 133.679688 380.824219 134.757812 C 381.402344 135.832031 381.921875 136.9375 382.390625 138.066406 C 382.855469 139.195312 383.269531 140.34375 383.621094 141.511719 C 383.976562 142.679688 384.273438 143.863281 384.511719 145.0625 C 384.75 146.257812 384.929688 147.464844 385.050781 148.683594 C 385.167969 149.898438 385.230469 151.117188 385.230469 152.335938 C 385.230469 153.558594 385.167969 154.777344 385.050781 155.992188 C 384.929688 157.210938 384.75 158.417969 384.511719 159.613281 C 384.273438 160.8125 383.976562 161.996094 383.621094 163.164062 C 383.269531 164.332031 382.855469 165.480469 382.390625 166.609375 C 381.921875 167.738281 381.402344 168.84375 380.824219 169.917969 C 380.25 170.996094 379.621094 172.042969 378.941406 173.058594 C 378.265625 174.074219 377.539062 175.054688 376.761719 176 C 375.988281 176.941406 375.167969 177.847656 374.304688 178.710938 C 373.441406 179.574219 372.535156 180.394531 371.59375 181.167969 C 370.648438 181.945312 369.667969 182.671875 368.652344 183.347656 C 367.636719 184.027344 366.589844 184.65625 365.511719 185.230469 C 364.4375 185.808594 363.332031 186.328125 362.203125 186.796875 C 361.078125 187.261719 359.925781 187.675781 358.757812 188.027344 C 357.589844 188.382812 356.40625 188.679688 355.207031 188.917969 C 354.011719 189.15625 352.804688 189.335938 351.585938 189.457031 C 350.371094 189.574219 349.152344 189.636719 347.933594 189.636719 C 346.710938 189.636719 345.492188 189.574219 344.277344 189.457031 C 343.058594 189.335938 341.855469 189.15625 340.65625 188.917969 C 339.457031 188.679688 338.273438 188.382812 337.105469 188.027344 C 335.9375 187.675781 334.789062 187.261719 333.660156 186.796875 C 332.53125 186.328125 331.425781 185.808594 330.351562 185.230469 C 329.273438 184.65625 328.226562 184.027344 327.210938 183.347656 C 326.195312 182.671875 325.214844 181.945312 324.269531 181.167969 C 323.328125 180.394531 322.421875 179.574219 321.558594 178.710938 C 320.695312 177.847656 319.875 176.941406 319.101562 176 C 318.324219 175.054688 317.597656 174.074219 316.921875 173.058594 C 316.242188 172.042969 315.613281 170.996094 315.039062 169.917969 C 314.464844 168.84375 313.941406 167.738281 313.472656 166.609375 C 313.007812 165.480469 312.59375 164.332031 312.242188 163.164062 C 311.886719 161.996094 311.589844 160.8125 311.351562 159.613281 C 311.113281 158.417969 310.933594 157.210938 310.8125 155.992188 C 310.695312 154.777344 310.636719 153.558594 310.636719 152.335938 C 310.636719 151.117188 310.695312 149.898438 310.8125 148.683594 C 310.933594 147.464844 311.113281 146.257812 311.351562 145.0625 C 311.589844 143.863281 311.886719 142.679688 312.242188 141.511719 C 312.59375 140.34375 313.007812 139.195312 313.472656 138.066406 C 313.941406 136.9375 314.464844 135.832031 315.039062 134.757812 C 315.613281 133.679688 316.242188 132.632812 316.921875 131.617188 C 317.597656 130.601562 318.324219 129.621094 319.101562 128.675781 C 319.875 127.734375 320.695312 126.828125 321.558594 125.964844 C 322.421875 125.101562 323.328125 124.28125 324.269531 123.507812 C 325.214844 122.730469 326.195312 122.003906 327.210938 121.328125 C 328.226562 120.648438 329.273438 120.019531 330.351562 119.445312 C 331.425781 118.867188 332.53125 118.347656 333.660156 117.878906 C 334.789062 117.414062 335.9375 117 337.105469 116.648438 C 338.273438 116.292969 339.457031 115.996094 340.65625 115.757812 C 341.855469 115.519531 343.058594 115.339844 344.277344 115.21875 C 345.492188 115.101562 346.710938 115.039062 347.933594 115.039062 C 349.152344 115.039062 350.371094 115.101562 351.585938 115.21875 C 352.804688 115.339844 354.011719 115.519531 355.207031 115.757812 C 356.40625 115.996094 357.589844 116.292969 358.757812 116.648438 C 359.925781 117 361.078125 117.414062 362.203125 117.878906 C 363.332031 118.347656 364.4375 118.867188 365.511719 119.445312 C 366.589844 120.019531 367.636719 120.648438 368.652344 121.328125 C 369.667969 122.003906 370.648438 122.730469 371.59375 123.507812 C 372.535156 124.28125 373.441406 125.101562 374.304688 125.964844 Z M 374.304688 125.964844 " fill-opacity="1" fill-rule="nonzero"/><path fill="#ffffff" d="M 295.183594 171.546875 C 294.433594 172.40625 293.167969 172.566406 292.210938 171.949219 C 290.839844 171.066406 289.53125 170.078125 288.308594 168.996094 C 288.042969 168.761719 287.753906 168.441406 287.847656 168.097656 C 287.941406 167.75 288.359375 167.621094 288.714844 167.554688 C 291.441406 167.027344 294.207031 166.675781 296.980469 166.503906 C 297.507812 166.46875 298.199219 166.554688 298.320312 167.074219 C 298.390625 167.382812 298.195312 167.6875 298.007812 167.949219 C 297.132812 169.164062 296.222656 170.355469 295.183594 171.546875 Z M 295.183594 171.546875 " fill-opacity="1" fill-rule="nonzero"/><path fill="#ffffff" d="M 232.289062 30.609375 C 231.578125 29.304688 229.460938 29.574219 229.109375 31.023438 C 227.199219 36.171875 226.09375 41.5625 224.710938 46.863281 C 222.601562 54.957031 219.839844 66.230469 219.25 72.652344 C 219.582031 75.160156 223.289062 74.730469 223.207031 72.214844 C 224.949219 61.648438 227.226562 51.171875 229.839844 40.789062 C 230.601562 37.808594 231.417969 34.839844 232.464844 31.949219 C 232.589844 31.5 232.523438 31.007812 232.289062 30.609375 Z M 232.289062 30.609375 " fill-opacity="1" fill-rule="nonzero"/><path fill="#ffffff" d="M 370.382812 65.730469 C 368.550781 53.96875 365.945312 42.269531 361.445312 31.21875 C 360.863281 29.695312 360.273438 28.179688 359.757812 26.632812 C 359.632812 26.179688 359.328125 25.785156 358.925781 25.550781 C 357.597656 24.71875 355.792969 26.089844 356.261719 27.597656 C 361.144531 40.03125 365.046875 55.46875 366.359375 66.839844 C 367.089844 69.453125 371.089844 68.371094 370.382812 65.730469 Z M 370.382812 65.730469 " fill-opacity="1" fill-rule="nonzero"/><path fill="#ee4b84" d="M 243.378906 157.035156 C 243.210938 154.433594 243.734375 151.671875 243.140625 149.148438 C 242.101562 146.359375 237.738281 147.265625 237.800781 150.222656 C 237.972656 154.238281 237.414062 158.417969 238.152344 162.351562 C 238.886719 164.464844 242.054688 164.613281 243.109375 162.683594 C 243.925781 160.949219 243.195312 158.894531 243.378906 157.035156 Z M 243.378906 157.035156 " fill-opacity="1" fill-rule="nonzero"/><path fill="#ee4b84" d="M 351.707031 147.671875 C 351.566406 146.425781 351.679688 145.003906 350.675781 144.078125 C 348.875 142.152344 345.359375 143.605469 345.445312 146.246094 C 346.078125 150.769531 345.355469 155.503906 346.195312 159.945312 C 347.4375 163.296875 352.683594 162.207031 352.605469 158.652344 C 352.246094 155 351.964844 151.335938 351.707031 147.671875 Z M 351.707031 147.671875 " fill-opacity="1" fill-rule="nonzero"/><path fill="#ee4b84" d="M 178.707031 532.691406 C 178.515625 532.691406 178.324219 532.675781 178.128906 532.640625 C 176.390625 532.320312 175.238281 530.652344 175.554688 528.914062 C 185.675781 473.519531 209.195312 419.445312 243.578125 372.542969 C 277.957031 325.640625 322.445312 286.933594 372.226562 260.609375 C 373.789062 259.785156 375.726562 260.378906 376.550781 261.945312 C 377.378906 263.507812 376.78125 265.445312 375.21875 266.273438 C 276.097656 318.683594 202.003906 419.765625 181.855469 530.066406 C 181.570312 531.609375 180.226562 532.691406 178.707031 532.691406 Z M 178.707031 532.691406 " fill-opacity="1" fill-rule="nonzero"/><path fill="#ee4b84" d="M 158.472656 508.308594 C 158.289062 508.308594 158.105469 508.292969 157.917969 508.261719 C 156.175781 507.957031 155.011719 506.300781 155.316406 504.558594 C 174.296875 395.820312 247.695312 298.160156 346.863281 249.6875 C 348.453125 248.910156 350.371094 249.570312 351.148438 251.160156 C 351.921875 252.746094 351.265625 254.664062 349.675781 255.441406 C 252.316406 303.027344 180.257812 398.90625 161.621094 505.660156 C 161.351562 507.214844 160 508.308594 158.472656 508.308594 Z M 158.472656 508.308594 " fill-opacity="1" fill-rule="nonzero"/><path fill="#ee4b84" d="M 140.765625 468.765625 C 140.613281 468.765625 140.457031 468.757812 140.296875 468.734375 C 138.546875 468.476562 137.339844 466.851562 137.59375 465.101562 C 147.730469 395.84375 196.117188 339.59375 231.632812 303.308594 C 253.945312 280.511719 281.230469 255.371094 314.429688 241.777344 C 316.066406 241.105469 317.933594 241.890625 318.605469 243.527344 C 319.277344 245.164062 318.492188 247.03125 316.855469 247.703125 C 284.734375 260.855469 258.0625 285.457031 236.207031 307.789062 C 180.761719 364.4375 151.441406 414.722656 143.929688 466.027344 C 143.695312 467.621094 142.328125 468.765625 140.765625 468.765625 Z M 140.765625 468.765625 " fill-opacity="1" fill-rule="nonzero"/><path fill="#ee4b84" d="M 461.550781 469.148438 C 460.289062 469.148438 459.09375 468.398438 458.585938 467.160156 C 430.636719 398.878906 379.980469 341.082031 315.949219 304.417969 C 314.414062 303.539062 313.882812 301.582031 314.761719 300.050781 C 315.640625 298.515625 317.597656 297.980469 319.132812 298.863281 C 384.394531 336.230469 436.023438 395.136719 464.511719 464.734375 C 465.183594 466.371094 464.398438 468.238281 462.761719 468.910156 C 462.363281 469.070312 461.953125 469.148438 461.550781 469.148438 Z M 461.550781 469.148438 " fill-opacity="1" fill-rule="nonzero"/><path fill="#ee4b84" d="M 449.609375 498.570312 C 448.445312 498.570312 447.324219 497.933594 446.757812 496.824219 C 403.824219 412.851562 354.527344 355.621094 296.046875 321.863281 C 294.515625 320.980469 293.988281 319.023438 294.875 317.492188 C 295.757812 315.960938 297.714844 315.4375 299.246094 316.316406 C 358.828125 350.714844 408.945312 408.804688 452.457031 493.914062 C 453.261719 495.484375 452.636719 497.414062 451.0625 498.21875 C 450.597656 498.457031 450.101562 498.570312 449.609375 498.570312 Z M 449.609375 498.570312 " fill-opacity="1" fill-rule="nonzero"/><path fill="#ee4b84" d="M 430.199219 525.816406 C 429.082031 525.816406 427.996094 525.230469 427.40625 524.183594 C 381.28125 442.273438 331.308594 382.816406 274.625 342.414062 C 273.1875 341.390625 272.851562 339.390625 273.878906 337.949219 C 274.90625 336.511719 276.902344 336.175781 278.34375 337.199219 C 335.804688 378.160156 386.390625 438.296875 432.988281 521.042969 C 433.855469 522.582031 433.308594 524.535156 431.765625 525.402344 C 431.269531 525.683594 430.730469 525.816406 430.199219 525.816406 Z M 430.199219 525.816406 " fill-opacity="1" fill-rule="nonzero"/><path fill="#ee4b84" d="M 253.695312 576.671875 C 252.738281 576.671875 251.792969 576.242188 251.160156 575.429688 C 250.078125 574.03125 250.335938 572.019531 251.734375 570.9375 C 299.457031 534 347.089844 492.097656 372.273438 436.09375 C 372.996094 434.480469 374.890625 433.757812 376.503906 434.488281 C 378.117188 435.210938 378.835938 437.109375 378.113281 438.71875 C 352.351562 496.003906 304.03125 538.554688 255.652344 576 C 255.070312 576.453125 254.378906 576.671875 253.695312 576.671875 Z M 253.695312 576.671875 " fill-opacity="1" fill-rule="nonzero"/><path fill="#ee4b84" d="M 405.871094 373.515625 C 405.394531 373.515625 404.910156 373.410156 404.457031 373.1875 C 402.871094 372.40625 402.21875 370.484375 403 368.898438 C 414.058594 346.453125 421.023438 322.457031 423.703125 297.582031 C 423.890625 295.824219 425.460938 294.546875 427.226562 294.742188 C 428.984375 294.933594 430.257812 296.511719 430.066406 298.269531 C 427.308594 323.890625 420.132812 348.605469 408.742188 371.730469 C 408.1875 372.859375 407.050781 373.515625 405.871094 373.515625 Z M 405.871094 373.515625 " fill-opacity="1" fill-rule="nonzero"/><path fill="#ee4b84" d="M 286.226562 584.625 C 285.277344 584.625 284.339844 584.207031 283.707031 583.402344 C 282.617188 582.011719 282.859375 580 284.25 578.90625 C 325.671875 546.394531 360.574219 507.113281 387.992188 462.152344 C 388.910156 460.644531 390.882812 460.167969 392.390625 461.085938 C 393.902344 462.007812 394.378906 463.976562 393.457031 465.488281 C 365.640625 511.101562 330.226562 550.957031 288.203125 583.941406 C 287.617188 584.402344 286.917969 584.625 286.226562 584.625 Z M 286.226562 584.625 " fill-opacity="1" fill-rule="nonzero"/><path fill="#ee4b84" d="M 327.816406 581.042969 C 326.925781 581.042969 326.039062 580.671875 325.410156 579.953125 C 324.242188 578.621094 324.375 576.601562 325.703125 575.433594 C 355.996094 548.847656 382.839844 518.460938 405.488281 485.121094 C 406.484375 483.65625 408.476562 483.277344 409.9375 484.269531 C 411.398438 485.261719 411.777344 487.253906 410.785156 488.71875 C 387.832031 522.507812 360.625 553.304688 329.925781 580.246094 C 329.320312 580.78125 328.566406 581.042969 327.816406 581.042969 Z M 327.816406 581.042969 " fill-opacity="1" fill-rule="nonzero"/><path fill="#ee4b84" d="M 444.214844 428.464844 C 443.757812 428.464844 443.292969 428.367188 442.855469 428.160156 C 441.253906 427.40625 440.566406 425.5 441.320312 423.898438 C 450.378906 404.640625 456.925781 384.265625 460.785156 363.332031 C 461.109375 361.59375 462.785156 360.4375 464.515625 360.765625 C 466.253906 361.085938 467.40625 362.753906 467.082031 364.492188 C 463.125 385.964844 456.40625 406.871094 447.113281 426.625 C 446.570312 427.785156 445.417969 428.464844 444.214844 428.464844 Z M 444.214844 428.464844 " fill-opacity="1" fill-rule="nonzero"/><path fill="#ee4b84" d="M 301.535156 531.628906 C 300.769531 531.628906 300 531.355469 299.386719 530.800781 C 266.011719 500.582031 237.113281 465.835938 213.480469 427.519531 C 212.554688 426.015625 213.019531 424.042969 214.527344 423.117188 C 216.03125 422.1875 218.003906 422.65625 218.933594 424.160156 C 242.246094 461.960938 270.757812 496.242188 303.683594 526.054688 C 304.996094 527.238281 305.097656 529.265625 303.910156 530.574219 C 303.277344 531.273438 302.40625 531.628906 301.535156 531.628906 Z M 301.535156 531.628906 " fill-opacity="1" fill-rule="nonzero"/><path fill="#ee4b84" d="M 281.667969 550.304688 C 280.867188 550.304688 280.066406 550.007812 279.445312 549.40625 C 249.914062 520.894531 222.976562 489.40625 199.378906 455.820312 C 198.363281 454.375 198.710938 452.375 200.160156 451.359375 C 201.605469 450.34375 203.601562 450.695312 204.617188 452.140625 C 227.980469 485.394531 254.652344 516.570312 283.894531 544.800781 C 285.164062 546.027344 285.199219 548.054688 283.972656 549.328125 C 283.34375 549.976562 282.507812 550.304688 281.667969 550.304688 Z M 281.667969 550.304688 " fill-opacity="1" fill-rule="nonzero"/><path fill="#ee4b84" d="M 261.371094 568.523438 C 260.613281 568.523438 259.855469 568.257812 259.246094 567.71875 C 232.039062 543.601562 208.535156 515.707031 189.382812 484.804688 C 188.449219 483.300781 188.914062 481.328125 190.417969 480.398438 C 191.921875 479.464844 193.894531 479.929688 194.824219 481.433594 C 213.648438 511.804688 236.753906 539.226562 263.496094 562.925781 C 264.816406 564.101562 264.9375 566.125 263.765625 567.445312 C 263.132812 568.160156 262.253906 568.523438 261.371094 568.523438 Z M 261.371094 568.523438 " fill-opacity="1" fill-rule="nonzero"/><path fill="#ee4b84" d="M 325.574219 509.5 C 324.539062 509.5 323.25 509.125 321.847656 507.847656 C 286.824219 476.035156 255.675781 439.992188 229.269531 400.722656 C 228.285156 399.253906 228.671875 397.265625 230.140625 396.28125 C 231.609375 395.292969 233.597656 395.683594 234.582031 397.148438 C 260.371094 435.5 290.726562 470.734375 324.832031 501.90625 C 325.027344 501.859375 325.230469 501.828125 325.4375 501.8125 C 327.320312 501.671875 328.832031 503.105469 329.328125 504.574219 C 329.871094 506.195312 329.289062 507.902344 327.878906 508.828125 C 327.527344 509.054688 326.699219 509.5 325.574219 509.5 Z M 325.574219 509.5 " fill-opacity="1" fill-rule="nonzero"/><path fill="#ee4b84" d="M 195.878906 349.292969 C 194.878906 349.292969 193.898438 348.832031 193.273438 347.957031 C 184.136719 335.179688 176.871094 321.183594 171.675781 306.363281 C 171.089844 304.695312 171.96875 302.867188 173.640625 302.285156 C 175.304688 301.695312 177.136719 302.578125 177.71875 304.246094 C 182.710938 318.496094 189.695312 331.949219 198.480469 344.230469 C 199.507812 345.667969 199.175781 347.667969 197.738281 348.699219 C 197.171875 349.101562 196.523438 349.296875 195.878906 349.296875 Z M 195.878906 349.292969 " fill-opacity="1" fill-rule="nonzero"/><path fill="#ee4b84" d="M 229.820312 311.523438 C 229.261719 311.523438 228.691406 311.378906 228.175781 311.070312 C 216.285156 303.941406 204.058594 297 191.84375 290.445312 C 190.285156 289.609375 189.703125 287.667969 190.539062 286.109375 C 191.375 284.554688 193.3125 283.96875 194.875 284.804688 C 207.175781 291.40625 219.488281 298.398438 231.46875 305.578125 C 232.984375 306.484375 233.476562 308.453125 232.570312 309.96875 C 231.96875 310.96875 230.90625 311.523438 229.820312 311.523438 Z M 229.820312 311.523438 " fill-opacity="1" fill-rule="nonzero"/><path fill="#ee4b84" d="M 249.304688 290.929688 C 248.71875 290.929688 248.121094 290.765625 247.589844 290.429688 C 236.613281 283.453125 224.894531 277.550781 212.757812 272.894531 C 211.109375 272.257812 210.285156 270.40625 210.917969 268.757812 C 211.550781 267.105469 213.40625 266.285156 215.054688 266.914062 C 227.585938 271.726562 239.6875 277.820312 251.023438 285.023438 C 252.519531 285.972656 252.957031 287.953125 252.011719 289.445312 C 251.398438 290.40625 250.363281 290.929688 249.304688 290.929688 Z M 249.304688 290.929688 " fill-opacity="1" fill-rule="nonzero"/><path fill="#ee4b84" d="M 270.65625 272.214844 C 270.136719 272.214844 269.609375 272.089844 269.121094 271.820312 C 259.058594 266.320312 248.511719 261.480469 237.769531 257.4375 C 236.113281 256.816406 235.277344 254.96875 235.902344 253.3125 C 236.523438 251.65625 238.375 250.820312 240.023438 251.445312 C 251.046875 255.59375 261.871094 260.558594 272.195312 266.203125 C 273.746094 267.054688 274.316406 268.996094 273.46875 270.550781 C 272.886719 271.613281 271.789062 272.214844 270.65625 272.214844 Z M 270.65625 272.214844 " fill-opacity="1" fill-rule="nonzero"/><path fill="#ee4b84" d="M 354.152344 418.394531 C 354.011719 418.394531 353.875 418.386719 353.734375 418.367188 C 316.277344 413.480469 278.128906 410.941406 240.347656 410.820312 C 238.582031 410.8125 237.152344 409.375 237.15625 407.605469 C 237.164062 405.84375 238.59375 404.417969 240.359375 404.417969 C 278.417969 404.539062 316.839844 407.09375 354.5625 412.019531 C 356.316406 412.246094 357.550781 413.855469 357.320312 415.605469 C 357.113281 417.21875 355.734375 418.394531 354.152344 418.394531 Z M 354.152344 418.394531 " fill-opacity="1" fill-rule="nonzero"/><path fill="#ee4b84" d="M 244.1875 381.722656 C 242.636719 381.722656 241.273438 380.597656 241.027344 379.019531 C 240.753906 377.269531 241.949219 375.632812 243.695312 375.359375 C 268.527344 371.472656 293.8125 370.664062 318.839844 372.957031 C 320.601562 373.121094 321.898438 374.675781 321.734375 376.4375 C 321.574219 378.199219 319.996094 379.488281 318.257812 379.332031 C 293.75 377.089844 269 377.878906 244.6875 381.6875 C 244.519531 381.710938 244.351562 381.722656 244.1875 381.722656 Z M 244.1875 381.722656 " fill-opacity="1" fill-rule="nonzero"/><path fill="#ee4b84" d="M 367.503906 451.433594 C 367.40625 451.433594 367.308594 451.429688 367.214844 451.421875 C 333.292969 448.371094 298.832031 446.429688 264.785156 445.65625 C 263.015625 445.613281 261.617188 444.148438 261.65625 442.382812 C 261.695312 440.640625 263.121094 439.253906 264.855469 439.253906 C 299.121094 440.03125 333.726562 441.980469 367.785156 445.046875 C 369.546875 445.203125 370.847656 446.761719 370.6875 448.519531 C 370.539062 450.183594 369.140625 451.433594 367.503906 451.433594 Z M 367.503906 451.433594 " fill-opacity="1" fill-rule="nonzero"/><path fill="#ee4b84" d="M 347.113281 482.269531 C 346.964844 482.269531 346.816406 482.261719 346.664062 482.238281 C 329.609375 479.828125 312.253906 479.269531 295.074219 480.5625 C 293.3125 480.707031 291.773438 479.375 291.640625 477.613281 C 291.507812 475.847656 292.828125 474.3125 294.59375 474.179688 C 312.226562 472.847656 330.046875 473.425781 347.558594 475.898438 C 349.308594 476.144531 350.527344 477.765625 350.28125 479.515625 C 350.054688 481.117188 348.683594 482.269531 347.113281 482.269531 Z M 347.113281 482.269531 " fill-opacity="1" fill-rule="nonzero"/><path fill="#ee4b84" d="M 348.28125 324.621094 C 346.816406 324.621094 345.492188 323.609375 345.160156 322.117188 C 344.773438 320.390625 345.863281 318.679688 347.585938 318.296875 C 372.082031 312.832031 397.210938 309.460938 422.277344 308.273438 C 424.035156 308.195312 425.542969 309.554688 425.625 311.320312 C 425.710938 313.085938 424.34375 314.585938 422.578125 314.667969 C 397.882812 315.839844 373.117188 319.160156 348.980469 324.542969 C 348.746094 324.597656 348.511719 324.621094 348.28125 324.621094 Z M 348.28125 324.621094 " fill-opacity="1" fill-rule="nonzero"/><path fill="#ee4b84" d="M 329.640625 295.175781 C 328.269531 295.175781 327.003906 294.289062 326.582031 292.914062 C 326.0625 291.222656 327.007812 289.433594 328.699219 288.910156 C 354.253906 281.050781 380.769531 277.007812 407.503906 276.898438 C 409.28125 276.898438 410.714844 278.324219 410.71875 280.085938 C 410.726562 281.855469 409.300781 283.292969 407.53125 283.300781 C 381.425781 283.410156 355.535156 287.355469 330.582031 295.03125 C 330.269531 295.128906 329.949219 295.175781 329.640625 295.175781 Z M 329.640625 295.175781 " fill-opacity="1" fill-rule="nonzero"/><path fill="#ee4b84" d="M 377.109375 346.226562 C 375.539062 346.226562 374.167969 345.074219 373.941406 343.476562 C 373.695312 341.726562 374.910156 340.105469 376.664062 339.855469 C 389.78125 337.992188 403.152344 337.191406 416.40625 337.484375 C 418.175781 337.523438 419.578125 338.984375 419.539062 340.753906 C 419.5 342.519531 418.082031 343.957031 416.269531 343.882812 C 403.363281 343.605469 390.339844 344.382812 377.5625 346.195312 C 377.410156 346.214844 377.257812 346.226562 377.109375 346.226562 Z M 377.109375 346.226562 " fill-opacity="1" fill-rule="nonzero"/></svg>